<svg xmlns="http://www.w3.org/2000/svg" version="1.1" xmlns:xlink="http://www.w3.org/1999/xlink" xmlns:svgjs="http://svgjs.dev/svgjs" width="1500" height="937" viewBox="0 0 1500 937"><g transform="matrix(1,0,0,1,0,0)"><svg viewBox="0 0 576 360" data-background-color="#0a192f" preserveAspectRatio="xMidYMid meet" height="937" width="1500" xmlns="http://www.w3.org/2000/svg" xmlns:xlink="http://www.w3.org/1999/xlink"><g id="tight-bounds" transform="matrix(1,0,0,1,0,0)"><svg viewBox="0 0 576 360" height="360" width="576"><g><svg></svg></g><g><svg viewBox="0 0 576 360" height="360" width="576"><g><path d="M132.115 90l155.885-90 155.885 90v180l-155.885 90-155.885-90zM140.017 265.438l147.983 85.438 147.983-85.438v-170.876l-147.983-85.438-147.983 85.438z" fill="#ccd6f6" fill-rule="nonzero" stroke="none" stroke-width="1" stroke-linecap="butt" stroke-linejoin="miter" stroke-miterlimit="10" stroke-dasharray="" stroke-dashoffset="0" font-family="none" font-weight="none" font-size="none" text-anchor="none" style="mix-blend-mode: normal" data-fill-palette-color="tertiary"></path></g><g transform="matrix(1,0,0,1,221.55175870504706,99)"><svg viewBox="0 0 132.89648258990587 162" height="162" width="132.89648258990587"><g><svg viewBox="0 0 230.4 280.8561917712862" height="162" width="132.89648258990587"><g transform="matrix(1,0,0,1,0,128.9441038591983)"><svg viewBox="0 0 230.4 151.9120879120879" height="151.9120879120879" width="230.4"><g id="textblocktransform"><svg viewBox="0 0 230.4 151.9120879120879" height="151.9120879120879" width="230.4" id="textblock"><g><svg viewBox="0 0 230.4 151.9120879120879" height="151.9120879120879" width="230.4"><g transform="matrix(1,0,0,1,0,0)"><svg width="230.4" viewBox="2 -35.25 54.6 36" height="151.9120879120879" data-palette-color="#64ffda"><path d="M29.05-34.55L31.25 0 25.2 0 24.6-14.6Q24.3-22.6 24.3-26L24.3-26 24.35-28.6 19.6-3.8 13.6-3.8 8.65-28.65Q8.7-27.15 8.7-24.05L8.7-24.05Q8.7-18.8 8.5-14.4L8.5-14.4 7.95 0 2 0 4.2-34.55 12.2-34.55 16.7-10.2 20.9-34.55 29.05-34.55ZM47.7-35.25Q50.35-35.25 52.37-34.38 54.4-33.5 56.3-31.7L56.3-31.7 53.25-28.05Q51.95-29.25 50.72-29.83 49.5-30.4 48.05-30.4L48.05-30.4Q45.05-30.4 43.35-27.4 41.65-24.4 41.65-17.35L41.65-17.35Q41.65-10.4 43.35-7.38 45.05-4.35 48.15-4.35L48.15-4.35Q49.7-4.35 50.85-4.98 52-5.6 53.55-6.9L53.55-6.9 56.6-3.4Q55-1.6 52.75-0.43 50.5 0.75 47.7 0.75L47.7 0.75Q41.85 0.75 38.4-3.8 34.95-8.35 34.95-17.35L34.95-17.35Q34.95-23.3 36.6-27.3 38.25-31.3 41.12-33.27 44-35.25 47.7-35.25L47.7-35.25Z" opacity="1" transform="matrix(1,0,0,1,0,0)" fill="#64ffda" class="wordmark-text-0" data-fill-palette-color="primary" id="text-0"></path></svg></g></svg></g></svg></g></svg></g><g transform="matrix(1,0,0,1,44.0064,0)"><svg viewBox="0 0 142.3872 93.08130579326422" height="93.08130579326422" width="142.3872"><g><svg xmlns="http://www.w3.org/2000/svg" xmlns:xlink="http://www.w3.org/1999/xlink" version="1.1" x="0" y="0" viewBox="28.50666734072633 0.3250000000000002 1223.5750307688716 799.875" enable-background="new 0 0 1280 800" xml:space="preserve" id="icon-0" width="142.3872" height="93.08130579326422" class="icon-icon-0" data-fill-palette-color="accent"><path d="M1129.8 604.9C1122 597.1 1105.7 591.2 1094 591.2 793.5 597.1 493 597.1 191.9 591.2 180.2 591.2 163.9 597.1 156.1 604.9 107.3 652.4 83.3 675.8 38.4 721.3 31.2 728.5 34.5 735 46.2 735.6 444.2 754.5 841.6 754.5 1239.7 734.9 1251.4 734.2 1254.7 727.7 1247.5 720.6 1202.6 675.8 1179.2 652.4 1129.8 604.9M514.5 727.8C502.8 727.8 500.2 721.3 508.6 713.5 513.8 708.9 516.4 706.3 521.6 701.1 530.1 693.3 546.3 686.8 558 686.8 626.9 687.5 661.4 687.5 730.4 686.8 742.1 686.8 758.4 693.3 766.8 701.1 772 705.7 774.6 708.3 779.8 713.5 788.3 721.3 785.7 727.8 773.9 727.8 688.1 728.5 601 728.5 514.5 727.8" fill="#ccd6f6" data-fill-palette-color="accent"></path><path d="M1249.4 774C1248.7 778.6 1244.2 783.1 1239 783.1 839 805.9 441 805.9 41 783.1 36.4 783.1 31.9 778.5 30.6 774 29.9 768.1 29.3 765.5 28.6 759.7 27.9 755.1 31.2 751.2 36.4 751.2 439 772 841 772 1244.2 751.2 1248.8 751.2 1252.7 754.5 1252 759.7 1250.7 765.5 1250.1 768.1 1249.4 774" fill="#ccd6f6" data-fill-palette-color="accent"></path><g fill="#ccd6f6" data-fill-palette-color="accent"><path d="M642 195.1C593.9 195.1 554.8 234.1 554.8 282.3 554.8 327.8 592.5 337.6 604.2 400 604.2 401.3 604.9 403.9 606.8 403.9 618.5 405.9 630.2 406.5 642.6 406.5S666.7 405.8 678.4 403.9C680.4 403.9 681 401.9 681 400.6 694 342.1 730.4 327.8 730.4 282.2 729.8 234.8 690.7 195.1 642 195.1" fill="#ccd6f6" data-fill-palette-color="accent"></path><g fill="#ccd6f6" data-fill-palette-color="accent"><path d="M651.1 419.5H633.5L613.3 418.2C608.7 417.5 605.5 420.8 606.1 426L610 452C610.7 456.6 615.2 461.8 619.8 463.1 619.8 463.1 624.4 464.4 641.9 464.4 659.5 464.4 664 463.1 664 463.1 668.6 461.8 673.1 456.6 673.8 452L677.7 426C678.4 421.4 675.1 417.5 670.5 418.2z" fill="#ccd6f6" data-fill-palette-color="accent"></path></g></g><path d="M543.1 228.3C541.8 228.3 540.5 227.6 539.2 227L486.5 196.4C482.6 194.4 481.3 189.2 483.9 185.3 485.9 181.4 491.1 180.1 495 182.7L547.7 213.3C551.6 215.3 552.9 220.5 550.3 224.4 548.3 227 545.7 228.3 543.1 228.3" fill="#ccd6f6" data-fill-palette-color="accent"></path><path d="M580.8 182.1C578.2 182.1 575.6 180.8 573.6 178.2L543 125.5C541 121.6 542.3 117 545.6 114.4 549.5 112.4 554.1 113.7 556.7 117L587.3 169.7C589.3 173.6 588 178.2 584.7 180.8 583.4 181.5 582.1 182.1 580.8 182.1" fill="#ccd6f6" data-fill-palette-color="accent"></path><path d="M640 160C635.4 160 632.2 156.7 632.2 152.2V96.9C632.2 92.3 635.5 89.1 640 89.1 644.6 89.1 647.8 92.4 647.8 96.9V152.2C647.8 156.1 644.6 160 640 160" fill="#ccd6f6" data-fill-palette-color="accent"></path><path d="M703.7 182.1C702.4 182.1 701.1 181.4 699.8 180.8 695.9 178.8 694.6 173.6 697.2 169.7L727.8 117C729.8 113.1 735 111.8 738.9 114.4 742.8 116.4 744.1 121.6 741.5 125.5L710.9 178.2C709.6 180.8 707 182.1 703.7 182.1" fill="#ccd6f6" data-fill-palette-color="accent"></path><path d="M741.5 228.3C738.9 228.3 736.3 227 734.3 224.4 732.3 220.5 733.6 215.9 736.9 213.3L789.6 182.7C793.5 180.7 798.1 182 800.7 185.3 802.7 189.2 801.4 193.8 798.1 196.4L745.4 227C744.1 228.3 742.8 228.3 741.5 228.3" fill="#ccd6f6" data-fill-palette-color="accent"></path><path d="M1062.1 48.1C1076.4 201.6 1081.6 355.1 1077.1 509.2 788.3 512.5 498.9 512.5 210.1 509.2 206.2 355.7 211.4 201.6 225.7 48.1 504.7 39 783.1 39 1062.1 48.1M1077.1 9.1C787-2.6 498.2-2.6 208.1 9.1 197 9.8 188.6 16.3 187.3 28 171 197.1 165.2 364.9 169.7 534.7 170.4 546.4 178.2 558.1 189.9 558.8 491.7 563.4 793.5 563.4 1095.3 558.8 1107 558.8 1117.4 546.4 1117.4 534.7 1122 364.9 1115.4 197.8 1099.2 28.7 1098.5 15.6 1088.8 9.1 1077.1 9.1" fill="#ccd6f6" data-fill-palette-color="accent"></path></svg></g></svg></g><g></g></svg></g></svg></g></svg></g><defs></defs></svg><rect width="576" height="360" fill="none" stroke="none" visibility="hidden"></rect></g></svg></g></svg>