<svg xmlns="http://www.w3.org/2000/svg" version="1.1" xmlns:xlink="http://www.w3.org/1999/xlink" xmlns:svgjs="http://svgjs.dev/svgjs" width="1500" height="1500" viewBox="0 0 1500 1500"><rect width="1500" height="1500" fill="#0a192f"></rect><g transform="matrix(0.6666666666666666,0,0,0.6666666666666666,250,437.6666666666667)"><svg viewBox="0 0 576 360" data-background-color="#0a192f" preserveAspectRatio="xMidYMid meet" height="937" width="1500" xmlns="http://www.w3.org/2000/svg" xmlns:xlink="http://www.w3.org/1999/xlink"><g id="tight-bounds" transform="matrix(1,0,0,1,0,0)"><svg viewBox="0 0 576 360" height="360" width="576"><g><svg></svg></g><g><svg viewBox="0 0 576 360" height="360" width="576"><g><path d="M132.115 90l155.885-90 155.885 90v180l-155.885 90-155.885-90zM145.815 262.091l142.185 82.09 142.185-82.09v-164.182l-142.185-82.09-142.185 82.09z" fill="#ccd6f6" fill-rule="nonzero" stroke="none" stroke-width="1" stroke-linecap="butt" stroke-linejoin="miter" stroke-miterlimit="10" stroke-dasharray="" stroke-dashoffset="0" font-family="none" font-weight="none" font-size="none" text-anchor="none" style="mix-blend-mode: normal" data-fill-palette-color="tertiary"></path></g><g transform="matrix(1,0,0,1,172.8,104.04395604395604)"><svg viewBox="0 0 230.4 151.9120879120879" height="151.9120879120879" width="230.4"><g><svg viewBox="0 0 230.4 151.9120879120879" height="151.9120879120879" width="230.4"><g><svg viewBox="0 0 230.4 151.9120879120879" height="151.9120879120879" width="230.4"><g id="textblocktransform"><svg viewBox="0 0 230.4 151.9120879120879" height="151.9120879120879" width="230.4" id="textblock"><g><svg viewBox="0 0 230.4 151.9120879120879" height="151.9120879120879" width="230.4"><g transform="matrix(1,0,0,1,0,0)"><svg width="230.4" viewBox="2 -35.25 54.6 36" height="151.9120879120879" data-palette-color="#64ffda"><path d="M29.05-34.55L31.25 0 25.2 0 24.6-14.6Q24.3-22.6 24.3-26L24.3-26 24.35-28.6 19.6-3.8 13.6-3.8 8.65-28.65Q8.7-27.15 8.7-24.05L8.7-24.05Q8.7-18.8 8.5-14.4L8.5-14.4 7.95 0 2 0 4.2-34.55 12.2-34.55 16.7-10.2 20.9-34.55 29.05-34.55ZM47.7-35.25Q50.35-35.25 52.37-34.38 54.4-33.5 56.3-31.7L56.3-31.7 53.25-28.05Q51.95-29.25 50.72-29.83 49.5-30.4 48.05-30.4L48.05-30.4Q45.05-30.4 43.35-27.4 41.65-24.4 41.65-17.35L41.65-17.35Q41.65-10.4 43.35-7.38 45.05-4.35 48.15-4.35L48.15-4.35Q49.7-4.35 50.85-4.98 52-5.6 53.55-6.9L53.55-6.9 56.6-3.4Q55-1.6 52.75-0.43 50.5 0.75 47.7 0.75L47.7 0.75Q41.85 0.75 38.4-3.8 34.95-8.35 34.95-17.35L34.95-17.35Q34.95-23.3 36.6-27.3 38.25-31.3 41.12-33.27 44-35.25 47.7-35.25L47.7-35.25Z" opacity="1" transform="matrix(1,0,0,1,0,0)" fill="#64ffda" class="wordmark-text-0" data-fill-palette-color="primary" id="text-0"></path></svg></g></svg></g></svg></g></svg></g><g></g></svg></g></svg></g></svg></g><defs></defs></svg><rect width="576" height="360" fill="none" stroke="none" visibility="hidden"></rect></g></svg></g></svg>